<svg height="480pt" viewBox="0 -72 480 480" width="480pt" xmlns="http://www.w3.org/2000/svg"><path d="m8 72h464v192h-464zm0 0" fill="#9bc9ff"/><g fill="#1e81ce"><path d="m472 336h-464c-4.417969 0-8-3.582031-8-8v-320c0-4.417969 3.582031-8 8-8h464c4.417969 0 8 3.582031 8 8v320c0 4.417969-3.582031 8-8 8zm-456-16h448v-304h-448zm0 0"/><path d="m56 32h16v16h-16zm0 0"/><path d="m24 32h16v16h-16zm0 0"/><path d="m88 32h16v16h-16zm0 0"/><path d="m120 32h16v16h-16zm0 0"/><path d="m152 32h16v16h-16zm0 0"/><path d="m184 32h16v16h-16zm0 0"/><path d="m216 32h16v16h-16zm0 0"/><path d="m248 32h16v16h-16zm0 0"/><path d="m280 32h16v16h-16zm0 0"/><path d="m312 32h16v16h-16zm0 0"/><path d="m344 32h16v16h-16zm0 0"/><path d="m376 32h16v16h-16zm0 0"/><path d="m408 32h16v16h-16zm0 0"/><path d="m440 32h16v16h-16zm0 0"/><path d="m56 288h16v16h-16zm0 0"/><path d="m24 288h16v16h-16zm0 0"/><path d="m88 288h16v16h-16zm0 0"/><path d="m120 288h16v16h-16zm0 0"/><path d="m152 288h16v16h-16zm0 0"/><path d="m184 288h16v16h-16zm0 0"/><path d="m216 288h16v16h-16zm0 0"/><path d="m248 288h16v16h-16zm0 0"/><path d="m280 288h16v16h-16zm0 0"/><path d="m312 288h16v16h-16zm0 0"/><path d="m344 288h16v16h-16zm0 0"/><path d="m376 288h16v16h-16zm0 0"/><path d="m408 288h16v16h-16zm0 0"/><path d="m440 288h16v16h-16zm0 0"/><path d="m440 80h-400c-4.417969 0-8-3.582031-8-8s3.582031-8 8-8h400c4.417969 0 8 3.582031 8 8s-3.582031 8-8 8zm0 0"/><path d="m440 272h-400c-4.417969 0-8-3.582031-8-8s3.582031-8 8-8h400c4.417969 0 8 3.582031 8 8s-3.582031 8-8 8zm0 0"/><path d="m128 224h-8v-120c0-3.582031-2.375-6.726562-5.820312-7.703125-3.445313-.972656-7.121094.460937-8.996094 3.511719l-19.6875 32c-1.6875 2.433594-1.894532 5.597656-.535156 8.230468 1.359374 2.632813 4.058593 4.296876 7.023437 4.328126 2.960937.03125 5.695313-1.574219 7.113281-4.175782l4.878906-7.933594v91.742188h-8.199218c-4.417969 0-8 3.582031-8 8s3.582031 8 8 8h32.222656c4.417969 0 8-3.582031 8-8s-3.582031-8-8-8zm0 0"/><path d="m300.800781 163.769531c2.074219-3.578125 3.175781-7.636719 3.199219-11.769531v-32c0-13.253906-10.746094-24-24-24h-16c-13.253906 0-24 10.746094-24 24v32c.023438 4.132812 1.125 8.191406 3.199219 11.769531-6.957031 4.375-11.183594 12.011719-11.199219 20.230469v32c0 13.253906 10.746094 24 24 24h32c13.253906 0 24-10.746094 24-24v-32c-.015625-8.21875-4.242188-15.855469-11.199219-20.230469zm-44.800781-43.769531c0-4.417969 3.582031-8 8-8h16c4.417969 0 8 3.582031 8 8v32c0 4.417969-3.582031 8-8 8h-16c-4.417969 0-8-3.582031-8-8zm40 96c0 4.417969-3.582031 8-8 8h-32c-4.417969 0-8-3.582031-8-8v-32c0-4.417969 3.582031-8 8-8h32c4.417969 0 8 3.582031 8 8zm0 0"/><path d="m376 96h-32c-13.253906 0-24 10.746094-24 24v96c0 13.253906 10.746094 24 24 24h32c13.253906 0 24-10.746094 24-24v-96c0-13.253906-10.746094-24-24-24zm8 120c0 4.417969-3.582031 8-8 8h-32c-4.417969 0-8-3.582031-8-8v-96c0-4.417969 3.582031-8 8-8h32c4.417969 0 8 3.582031 8 8zm0 0"/><path d="m200 96h-32c-13.253906 0-24 10.746094-24 24v96c0 13.253906 10.746094 24 24 24h32c13.253906 0 24-10.746094 24-24v-96c0-13.253906-10.746094-24-24-24zm8 120c0 4.417969-3.582031 8-8 8h-32c-4.417969 0-8-3.582031-8-8v-96c0-4.417969 3.582031-8 8-8h32c4.417969 0 8 3.582031 8 8zm0 0"/></g></svg>