<svg viewBox="0 0 512 512" xmlns="http://www.w3.org/2000/svg"><path d="m512 256c0 141.386719-114.613281 256-256 256s-256-114.613281-256-256 114.613281-256 256-256 256 114.613281 256 256zm0 0" fill="#00edff"/><path d="m512 256c0-20.253906-2.363281-39.957031-6.808594-58.851562l-72.746094-72.75-352.890624 233.714843 152.789062 152.789063c7.792969.714844 15.679688 1.097656 23.65625 1.097656 141.386719 0 256-114.613281 256-256zm0 0" fill="#0ac0ea"/><path d="m84.554688 129.398438h342.890624v223.714843h-342.890624zm0 0" fill="#7e8596"/><path d="m255.605469 129.398438h171.839843v223.714843h-171.839843zm0 0" fill="#707789"/><path d="m432.445312 358.113281h-352.890624v-233.714843h352.890624zm-342.890624-10h332.890624v-213.714843h-332.890624zm0 0" fill="#2d2d2d"/><path d="m432.445312 124.398438h-176.839843v10h166.839843v213.714843h-166.839843v10h176.839843zm0 0" fill="#1c1b1c"/><path d="m235.5 353.113281h41v36.886719h-41zm0 0" fill="#2d2d2d"/><path d="m255.605469 353.113281h20.894531v36.886719h-20.894531zm0 0" fill="#1c1b1c"/><path d="m146.5 378.5h219v23h-219zm0 0" fill="#2d2d2d"/><path d="m255.605469 378.5h109.894531v23h-109.894531zm0 0" fill="#1c1b1c"/><g fill="#23272b"><path d="m203.367188 271.808594h-51.9375v-23.445313l51.9375-61.734375h24.847656v63.0625h12.878906v22.117188h-12.878906v19.179687h-24.847656zm0-22.117188v-32.292968l-27.441407 32.292968zm0 0"/><path d="m256 189.953125h31.707031v38.777344l33.210938-38.777344h42.171875l-37.445313 38.730469 39.125 63.878906h-39.046875l-21.632812-42.199219-16.382813 17.160157v25.039062h-31.707031zm0 0"/></g></svg>