<svg height="512" viewBox="0 0 128 128" width="512" xmlns="http://www.w3.org/2000/svg"><g id="Circle_Grid" data-name="Circle Grid"><circle cx="64" cy="64" fill="#ea8953" r="64"/></g><g id="icon"><path d="m73.918 86.445 5.211 12.41h-30.258l5.211-12.41z" fill="#62667c"/><rect fill="#575b6d" height="61.622" rx="4.1" width="82" x="23" y="27.843"/><path d="m26.571 31.928h74.857v47.377h-74.857z" fill="#69b0ee"/><g fill="#828a9e"><circle cx="97.942" cy="84.385" r="1.488"/><circle cx="92.048" cy="84.385" r="1.488"/><circle cx="86.155" cy="84.385" r="1.488"/></g><path d="m84.129 100.157h-40.258a3.906 3.906 0 0 1 3.906-3.906h32.446a3.906 3.906 0 0 1 3.906 3.906z" fill="#575b6d"/><path d="m56.854 54.647a4.775 4.775 0 0 1 2.782 1.832 5.331 5.331 0 0 1 .977 3.193 5.743 5.743 0 0 1 -1.872 4.445 7.341 7.341 0 0 1 -9.187.189 5.49 5.49 0 0 1 -1.886-4.028h2.627a3.54 3.54 0 0 0 .983 2.506 4.186 4.186 0 0 0 5.651-.094 4.2 4.2 0 0 0 1.057-2.964 3.682 3.682 0 0 0 -1.1-2.863 4.586 4.586 0 0 0 -3.2-1h-.97v-1.98h.584q3.691 0 3.691-3.395a3.069 3.069 0 0 0 -.808-2.29 3.109 3.109 0 0 0 -2.283-.798q-3.017 0-3.368 3.139h-2.609a5.451 5.451 0 0 1 1.913-3.819 6.193 6.193 0 0 1 4.014-1.313 5.973 5.973 0 0 1 4.2 1.435 4.792 4.792 0 0 1 1.563 3.7 4.545 4.545 0 0 1 -.68 2.391 4.291 4.291 0 0 1 -2.079 1.714z" fill="#eeefee"/><path d="m64.007 45.742h6.264q10.063 0 10.063 9.766 0 9.982-10.063 9.982h-6.264zm2.613 17.4h3.6q4.3 0 5.86-2a8.968 8.968 0 0 0 1.563-5.638 8.561 8.561 0 0 0 -1.556-5.483q-1.556-1.94-5.867-1.94h-3.6z" fill="#eeefee"/></g></svg>