<svg height="480pt" viewBox="0 -72 480 480" width="480pt" xmlns="http://www.w3.org/2000/svg"><path d="m8 72h464v192h-464zm0 0" fill="#9bc9ff"/><g fill="#1e81ce"><path d="m472 336h-464c-4.417969 0-8-3.582031-8-8v-320c0-4.417969 3.582031-8 8-8h464c4.417969 0 8 3.582031 8 8v320c0 4.417969-3.582031 8-8 8zm-456-16h448v-304h-448zm0 0"/><path d="m56 32h16v16h-16zm0 0"/><path d="m24 32h16v16h-16zm0 0"/><path d="m88 32h16v16h-16zm0 0"/><path d="m120 32h16v16h-16zm0 0"/><path d="m152 32h16v16h-16zm0 0"/><path d="m184 32h16v16h-16zm0 0"/><path d="m216 32h16v16h-16zm0 0"/><path d="m248 32h16v16h-16zm0 0"/><path d="m280 32h16v16h-16zm0 0"/><path d="m312 32h16v16h-16zm0 0"/><path d="m344 32h16v16h-16zm0 0"/><path d="m376 32h16v16h-16zm0 0"/><path d="m408 32h16v16h-16zm0 0"/><path d="m440 32h16v16h-16zm0 0"/><path d="m56 288h16v16h-16zm0 0"/><path d="m24 288h16v16h-16zm0 0"/><path d="m88 288h16v16h-16zm0 0"/><path d="m120 288h16v16h-16zm0 0"/><path d="m152 288h16v16h-16zm0 0"/><path d="m184 288h16v16h-16zm0 0"/><path d="m216 288h16v16h-16zm0 0"/><path d="m248 288h16v16h-16zm0 0"/><path d="m280 288h16v16h-16zm0 0"/><path d="m312 288h16v16h-16zm0 0"/><path d="m344 288h16v16h-16zm0 0"/><path d="m376 288h16v16h-16zm0 0"/><path d="m408 288h16v16h-16zm0 0"/><path d="m440 288h16v16h-16zm0 0"/><path d="m440 80h-400c-4.417969 0-8-3.582031-8-8s3.582031-8 8-8h400c4.417969 0 8 3.582031 8 8s-3.582031 8-8 8zm0 0"/><path d="m440 272h-400c-4.417969 0-8-3.582031-8-8s3.582031-8 8-8h400c4.417969 0 8 3.582031 8 8s-3.582031 8-8 8zm0 0"/><path d="m192 96h-64c-4.417969 0-8 3.582031-8 8s3.582031 8 8 8h53.121094l-36.753906 117.601562c-1.324219 4.214844 1.019531 8.703126 5.234374 10.03125 4.214844 1.324219 8.703126-1.019531 10.03125-5.234374l40-128c.761719-2.429688.324219-5.078126-1.183593-7.132813-1.507813-2.050781-3.902344-3.265625-6.449219-3.265625zm0 0"/><path d="m352 96h-32c-13.253906 0-24 10.746094-24 24v96c0 13.253906 10.746094 24 24 24h32c13.253906 0 24-10.746094 24-24v-96c0-13.253906-10.746094-24-24-24zm8 120c0 4.417969-3.582031 8-8 8h-32c-4.417969 0-8-3.582031-8-8v-96c0-4.417969 3.582031-8 8-8h32c4.417969 0 8 3.582031 8 8zm0 0"/><path d="m264 96h-32c-13.253906 0-24 10.746094-24 24 0 4.417969 3.582031 8 8 8s8-3.582031 8-8 3.582031-8 8-8h32c4.417969 0 8 3.582031 8 8v23.136719c0 2.757812-1.425781 5.324219-3.769531 6.785156l-48.949219 30.589844c-7.035156 4.371093-11.304688 12.070312-11.28125 20.351562v31.136719c0 4.417969 3.582031 8 8 8h64c4.417969 0 8-3.582031 8-8s-3.582031-8-8-8h-56v-23.136719c0-2.757812 1.425781-5.324219 3.769531-6.785156l48.949219-30.589844c7.035156-4.371093 11.304688-12.070312 11.28125-20.351562v-23.136719c0-13.253906-10.746094-24-24-24zm0 0"/></g></svg>