<svg id="Layer_1" enable-background="new 0 0 256 256" height="512" viewBox="0 0 256 256" width="512" xmlns="http://www.w3.org/2000/svg"><path d="m234.25 248h-212.5c-2.761 0-5-2.239-5-5v-230c0-2.761 2.239-5 5-5h212.5c2.761 0 5 2.239 5 5v230c0 2.761-2.239 5-5 5z" fill="#4671c6"/><path d="m188.75 207.516h-121.5c-2.209 0-4-1.791-4-4v-151.031c0-2.209 1.791-4 4-4h121.5c2.209 0 4 1.791 4 4v151.031c0 2.209-1.791 4-4 4z" fill="#e0ebfc"/><circle cx="128" cy="127.808" fill="#6bdddd" r="57.194"/><path d="m48.484 232.484h-16.969c-2.209 0-4-1.791-4-4v-16.969c0-2.209 1.791-4 4-4h16.969c2.209 0 4 1.791 4 4v16.969c0 2.21-1.79 4-4 4z" fill="#a4c9ff"/><path d="m48.484 186.484h-16.969c-2.209 0-4-1.791-4-4v-16.969c0-2.209 1.791-4 4-4h16.969c2.209 0 4 1.791 4 4v16.969c0 2.21-1.79 4-4 4z" fill="#a4c9ff"/><path d="m48.484 140.484h-16.969c-2.209 0-4-1.791-4-4v-16.969c0-2.209 1.791-4 4-4h16.969c2.209 0 4 1.791 4 4v16.969c0 2.21-1.79 4-4 4z" fill="#a4c9ff"/><path d="m48.484 94.484h-16.969c-2.209 0-4-1.791-4-4v-16.968c0-2.209 1.791-4 4-4h16.969c2.209 0 4 1.791 4 4v16.969c0 2.209-1.79 3.999-4 3.999z" fill="#a4c9ff"/><path d="m48.484 48.485h-16.969c-2.209 0-4-1.791-4-4v-16.97c0-2.209 1.791-4 4-4h16.969c2.209 0 4 1.791 4 4v16.969c0 2.21-1.79 4.001-4 4.001z" fill="#a4c9ff"/><path d="m192.75 248h-129.5v-11.516c0-2.209 1.791-4 4-4h121.5c2.209 0 4 1.791 4 4z" fill="#e0ebfc"/><path d="m188.75 23.515h-121.5c-2.209 0-4-1.791-4-4v-11.515h129.5v11.515c0 2.21-1.791 4-4 4z" fill="#e0ebfc"/><path d="m224.484 232.484h-16.969c-2.209 0-4-1.791-4-4v-16.969c0-2.209 1.791-4 4-4h16.969c2.209 0 4 1.791 4 4v16.969c0 2.21-1.79 4-4 4z" fill="#a4c9ff"/><path d="m224.484 186.484h-16.969c-2.209 0-4-1.791-4-4v-16.969c0-2.209 1.791-4 4-4h16.969c2.209 0 4 1.791 4 4v16.969c0 2.21-1.79 4-4 4z" fill="#a4c9ff"/><path d="m224.484 140.484h-16.969c-2.209 0-4-1.791-4-4v-16.969c0-2.209 1.791-4 4-4h16.969c2.209 0 4 1.791 4 4v16.969c0 2.21-1.79 4-4 4z" fill="#a4c9ff"/><path d="m224.484 94.484h-16.969c-2.209 0-4-1.791-4-4v-16.968c0-2.209 1.791-4 4-4h16.969c2.209 0 4 1.791 4 4v16.969c0 2.209-1.79 3.999-4 3.999z" fill="#a4c9ff"/><path d="m224.484 48.485h-16.969c-2.209 0-4-1.791-4-4v-16.97c0-2.209 1.791-4 4-4h16.969c2.209 0 4 1.791 4 4v16.969c0 2.21-1.79 4.001-4 4.001z" fill="#a4c9ff"/><circle cx="128" cy="127.808" fill="#ffea92" r="45.784"/><g fill="#3762cc"><path d="m234.25 250h-212.5c-3.86 0-7-3.14-7-7v-230c0-3.86 3.14-7 7-7h212.5c3.86 0 7 3.14 7 7v230c0 3.86-3.14 7-7 7zm-212.5-240c-1.654 0-3 1.346-3 3v230c0 1.654 1.346 3 3 3h212.5c1.654 0 3-1.346 3-3v-230c0-1.654-1.346-3-3-3z"/><path d="m188.75 209.516h-121.5c-3.309 0-6-2.691-6-6v-151.032c0-3.309 2.691-6 6-6h121.5c3.309 0 6 2.691 6 6v151.031c0 3.309-2.691 6.001-6 6.001zm-121.5-159.032c-1.103 0-2 .897-2 2v151.031c0 1.103.897 2 2 2h121.5c1.103 0 2-.897 2-2v-151.031c0-1.103-.897-2-2-2z"/><path d="m192.75 250h-129.5c-1.104 0-2-.896-2-2v-11.516c0-3.309 2.691-6 6-6h121.5c3.309 0 6 2.691 6 6v11.516c0 1.104-.896 2-2 2zm-127.5-4h125.5v-9.516c0-1.103-.897-2-2-2h-121.5c-1.103 0-2 .897-2 2z"/><path d="m188.75 25.516h-121.5c-3.309 0-6-2.691-6-6v-11.516c0-1.104.896-2 2-2h129.5c1.104 0 2 .896 2 2v11.516c0 3.308-2.691 6-6 6zm-123.5-15.516v9.516c0 1.103.897 2 2 2h121.5c1.103 0 2-.897 2-2v-9.516z"/><path d="m48.484 234.484h-16.968c-3.309 0-6-2.691-6-6v-16.969c0-3.309 2.691-6 6-6h16.969c3.309 0 6 2.691 6 6v16.969c-.001 3.309-2.692 6-6.001 6zm-16.968-24.968c-1.103 0-2 .897-2 2v16.969c0 1.103.897 2 2 2h16.969c1.103 0 2-.897 2-2v-16.969c0-1.103-.897-2-2-2z"/><path d="m48.484 188.484h-16.968c-3.309 0-6-2.691-6-6v-16.969c0-3.309 2.691-6 6-6h16.969c3.309 0 6 2.691 6 6v16.969c-.001 3.309-2.692 6-6.001 6zm-16.968-24.968c-1.103 0-2 .897-2 2v16.969c0 1.103.897 2 2 2h16.969c1.103 0 2-.897 2-2v-16.969c0-1.103-.897-2-2-2z"/><path d="m48.484 142.484h-16.968c-3.309 0-6-2.691-6-6v-16.969c0-3.309 2.691-6 6-6h16.969c3.309 0 6 2.691 6 6v16.969c-.001 3.309-2.692 6-6.001 6zm-16.968-24.968c-1.103 0-2 .897-2 2v16.969c0 1.103.897 2 2 2h16.969c1.103 0 2-.897 2-2v-16.969c0-1.103-.897-2-2-2z"/><path d="m48.484 96.484h-16.968c-3.309 0-6-2.691-6-6v-16.968c0-3.309 2.691-6 6-6h16.969c3.309 0 6 2.691 6 6v16.969c-.001 3.308-2.692 5.999-6.001 5.999zm-16.968-24.968c-1.103 0-2 .897-2 2v16.969c0 1.103.897 2 2 2h16.969c1.103 0 2-.897 2-2v-16.969c0-1.103-.897-2-2-2z"/><path d="m48.484 50.484h-16.968c-3.309 0-6-2.691-6-6v-16.968c0-3.309 2.691-6 6-6h16.969c3.309 0 6 2.691 6 6v16.969c-.001 3.308-2.692 5.999-6.001 5.999zm-16.968-24.968c-1.103 0-2 .897-2 2v16.969c0 1.103.897 2 2 2h16.969c1.103 0 2-.897 2-2v-16.969c0-1.103-.897-2-2-2z"/><path d="m224.484 234.484h-16.969c-3.309 0-6-2.691-6-6v-16.969c0-3.309 2.691-6 6-6h16.969c3.309 0 6 2.691 6 6v16.969c0 3.309-2.691 6-6 6zm-16.968-24.968c-1.103 0-2 .897-2 2v16.969c0 1.103.897 2 2 2h16.969c1.103 0 2-.897 2-2v-16.969c0-1.103-.897-2-2-2z"/><path d="m224.484 188.484h-16.969c-3.309 0-6-2.691-6-6v-16.969c0-3.309 2.691-6 6-6h16.969c3.309 0 6 2.691 6 6v16.969c0 3.309-2.691 6-6 6zm-16.968-24.968c-1.103 0-2 .897-2 2v16.969c0 1.103.897 2 2 2h16.969c1.103 0 2-.897 2-2v-16.969c0-1.103-.897-2-2-2z"/><path d="m224.484 142.484h-16.969c-3.309 0-6-2.691-6-6v-16.969c0-3.309 2.691-6 6-6h16.969c3.309 0 6 2.691 6 6v16.969c0 3.309-2.691 6-6 6zm-16.968-24.968c-1.103 0-2 .897-2 2v16.969c0 1.103.897 2 2 2h16.969c1.103 0 2-.897 2-2v-16.969c0-1.103-.897-2-2-2z"/><path d="m224.484 96.484h-16.969c-3.309 0-6-2.691-6-6v-16.968c0-3.309 2.691-6 6-6h16.969c3.309 0 6 2.691 6 6v16.969c0 3.308-2.691 5.999-6 5.999zm-16.968-24.968c-1.103 0-2 .897-2 2v16.969c0 1.103.897 2 2 2h16.969c1.103 0 2-.897 2-2v-16.969c0-1.103-.897-2-2-2z"/><path d="m224.484 50.484h-16.969c-3.309 0-6-2.691-6-6v-16.968c0-3.309 2.691-6 6-6h16.969c3.309 0 6 2.691 6 6v16.969c0 3.308-2.691 5.999-6 5.999zm-16.968-24.968c-1.103 0-2 .897-2 2v16.969c0 1.103.897 2 2 2h16.969c1.103 0 2-.897 2-2v-16.969c0-1.103-.897-2-2-2z"/></g><path d="m109.224 130.566h-7.397v11.285c0 1.614-.38 2.837-1.142 3.671-.761.834-1.722 1.251-2.882 1.251-1.214 0-2.193-.413-2.936-1.238-.744-.825-1.115-2.035-1.115-3.63v-30.728c0-1.777.408-3.046 1.224-3.807.815-.762 2.112-1.143 3.889-1.143h10.36c3.063 0 5.421.236 7.07.707 1.632.453 3.041 1.206 4.229 2.257 1.188 1.052 2.089 2.339 2.705 3.862s.925 3.236.925 5.139c0 4.061-1.251 7.138-3.753 9.232-2.503 2.095-6.228 3.142-11.177 3.142zm-1.958-18.274h-5.439v12.183h5.439c1.904 0 3.494-.199 4.772-.598 1.277-.398 2.253-1.051 2.923-1.958s1.006-2.094 1.006-3.563c0-1.758-.517-3.19-1.549-4.296-1.16-1.178-3.545-1.768-7.152-1.768z" fill="#4671c6"/><path d="m163.308 129.886v7.641c0 1.015-.1 1.827-.299 2.434-.2.607-.568 1.156-1.102 1.645s-1.219.961-2.052 1.414c-2.412 1.305-4.731 2.257-6.962 2.855s-4.659.898-7.288.898c-3.063 0-5.856-.472-8.376-1.414s-4.668-2.311-6.444-4.106c-1.778-1.795-3.141-3.97-4.093-6.526s-1.427-5.411-1.427-8.566c0-3.1.462-5.937 1.386-8.511.926-2.574 2.284-4.759 4.08-6.554 1.794-1.795 3.978-3.168 6.554-4.12 2.574-.952 5.492-1.428 8.756-1.428 2.683 0 5.058.358 7.123 1.074 2.067.716 3.744 1.618 5.032 2.705 1.286 1.088 2.256 2.24 2.909 3.454s.98 2.293.98 3.236c0 1.015-.377 1.881-1.13 2.597-.751.716-1.653 1.074-2.705 1.074-.581 0-1.137-.136-1.672-.408-.536-.272-.983-.653-1.347-1.142-.996-1.559-1.839-2.737-2.529-3.535-.688-.797-1.618-1.468-2.787-2.012s-2.661-.816-4.474-.816c-1.867 0-3.535.322-5.002.966-1.47.643-2.724 1.577-3.767 2.801s-1.841 2.724-2.394 4.5-.829 3.743-.829 5.901c0 4.677 1.074 8.276 3.223 10.796s5.143 3.78 8.988 3.78c1.867 0 3.62-.244 5.26-.734 1.642-.49 3.305-1.188 4.991-2.094v-6.472h-6.255c-1.505 0-2.642-.227-3.412-.68-.772-.453-1.156-1.224-1.156-2.311 0-.888.321-1.622.965-2.202s1.518-.87 2.624-.87h9.164c1.124 0 2.076.1 2.856.299s1.41.643 1.891 1.332c.479.688.72 1.721.72 3.099z" fill="#4671c6"/><path d="m128 187.002c-32.64 0-59.194-26.555-59.194-59.194s26.554-59.194 59.194-59.194 59.194 26.554 59.194 59.194-26.554 59.194-59.194 59.194zm0-114.388c-30.434 0-55.194 24.76-55.194 55.194s24.76 55.194 55.194 55.194 55.194-24.76 55.194-55.194-24.76-55.194-55.194-55.194z" fill="#3762cc"/><path d="m128 175.592c-26.349 0-47.785-21.436-47.785-47.785 0-26.348 21.436-47.784 47.785-47.784s47.785 21.436 47.785 47.784c0 26.349-21.436 47.785-47.785 47.785zm0-91.569c-24.143 0-43.785 19.642-43.785 43.784 0 24.143 19.642 43.785 43.785 43.785s43.785-19.642 43.785-43.785c0-24.142-19.642-43.784-43.785-43.784z" fill="#3762cc"/></svg>